<svg width="82" height="82" viewBox="0 0 82 82" fill="none" xmlns="http://www.w3.org/2000/svg">
<g filter="url(#filter0_f_27_374)">
<path d="M39.7528 43.6226C42.6659 44.4757 41.8702 48.484 38.8728 48.151C35.957 47.5864 36.5699 43.085 39.7528 43.6226Z" fill="#AAAAAA" fill-opacity="0.3"/>
<path d="M48.2401 22.1849C56.063 24.5291 57.3786 35.3655 49.1078 37.8014C47.6895 38.219 46.2376 38.4649 44.954 39.2533C43.6403 40.0601 43.478 41.3948 42.5487 41.9968C41.5047 42.6731 39.9864 42.3199 39.3273 41.2703C37.9897 39.14 41.0489 36.2751 42.8033 35.167C43.4338 34.9511 44.1085 34.5807 44.8055 34.3382C46.4824 33.755 49.3302 33.5082 49.9039 31.4624C51.0368 27.4226 44.8361 24.3163 41.8822 27.4807C41.4336 27.9614 41.1099 28.5178 40.5155 28.8438C38.6726 29.8547 36.1104 27.8762 37.7192 25.3132C39.9184 21.8095 44.4996 20.9742 48.2401 22.1849Z" fill="#AAAAAA" fill-opacity="0.3"/>
<path d="M37.2146 51.5177L37.2846 51.5411C41.5452 52.9757 43.839 57.9293 42.403 62.1379C40.8811 66.5987 36.0254 68.9207 31.5828 67.378C24.5565 64.9439 23.8297 55.287 30.4971 51.8962C32.6609 50.7958 34.9424 50.7744 37.2146 51.5177ZM35.3617 55.7952C30.3386 54.5862 28.7399 62.0289 33.4886 63.0763C38.8384 63.9486 39.8542 56.9725 35.3617 55.7952Z" fill="#AAAAAA" fill-opacity="0.3"/>
<path d="M50.7587 13.9728C57.7031 16.3122 62.9197 22.2811 64.6734 29.3697C64.9575 30.5181 65.1111 31.7182 65.2594 32.8907C65.9385 33.5115 66.6941 34.0487 67.3642 34.6821C72.4409 39.4815 73.6287 47.2252 70.0021 53.2605C65.3667 60.975 54.6125 62.9139 47.8479 56.9959C47.4605 56.657 47.1108 56.246 46.666 55.9818L46.6181 55.9536C46.3626 55.9461 46.1154 56.0007 45.8633 56.0329C43.7165 56.3075 42.3969 54.2517 43.3987 52.4165C44.036 51.2489 45.3796 51.3333 46.5212 51.1874C51.408 50.5626 56.3305 46.9241 58.6286 42.649C65.1019 30.6066 55.3677 15.517 41.503 17.6556C40.8546 17.7557 40.1841 17.871 39.556 18.0616C35.717 19.0297 32.3596 21.6627 30.0255 24.79C29.5277 24.6556 29.0484 24.4241 28.5548 24.267C21.379 21.9836 14.1138 28.0812 15.2942 35.5434C16.098 40.6248 20.8444 44.7941 26.0542 44.2919C26.8355 44.2166 27.5633 43.9947 28.3282 43.8786L28.3644 43.8734C29.2799 44.9113 31.7795 47.5225 31.5289 48.8036C31.2918 50.0148 30.1095 50.8481 28.8865 50.5965C27.8867 50.3909 27.4963 49.6554 26.9789 48.8689C18.5969 50.1034 11.2487 43.2824 10.6473 35.0152C9.96626 25.6536 18.1714 18.4547 27.3433 19.3758C27.7369 19.4154 28.1234 19.5173 28.5191 19.5377L28.5633 19.5397C29.0882 19.1098 29.55 18.5722 30.0574 18.1169C31.6698 16.6701 33.6823 15.4121 35.6804 14.554C41.0071 12.2665 45.3936 12.4843 50.7587 13.9728ZM64.891 38.7197L64.8794 38.7553C64.6961 39.3348 64.6038 39.9443 64.4416 40.5307C62.8707 46.2121 58.9463 50.8215 53.7412 53.5574C53.4198 53.7264 52.3118 54.1685 52.1572 54.3426L52.1507 54.4021C53.0103 55.154 55.6662 55.7669 56.7613 55.8502C62.387 56.1444 67.3309 51.7752 67.6099 46.119C67.7191 43.9048 66.5813 40.2764 64.891 38.7197Z" fill="#AAAAAA" fill-opacity="0.3"/>
</g>
<defs>
<filter id="filter0_f_27_374" x="-3.99976" y="-4" width="89.9202" height="89.9199" filterUnits="userSpaceOnUse" color-interpolation-filters="sRGB">
<feFlood flood-opacity="0" result="BackgroundImageFix"/>
<feBlend mode="normal" in="SourceGraphic" in2="BackgroundImageFix" result="shape"/>
<feGaussianBlur stdDeviation="2" result="effect1_foregroundBlur_27_374"/>
</filter>
</defs>
</svg>
