<svg width="53" height="52" viewBox="0 0 53 52" fill="none" xmlns="http://www.w3.org/2000/svg">
<g filter="url(#filter0_f_27_323)">
<path d="M21.1176 14.1376C22.5378 13.3369 24.0928 12.688 25.7827 12.1911C27.6646 11.6282 29.5036 11.3228 31.2995 11.275C33.3289 11.2079 35.1784 11.4676 36.848 12.0542C38.7224 12.7304 40.3078 13.799 41.6042 15.2598C43.5229 17.4219 44.3948 19.8757 44.22 22.6212C44.0452 25.3668 42.871 27.7041 40.6972 29.6331C36.9692 32.9415 30.9936 33.941 22.7706 32.6315C23.8208 35.2509 23.335 37.4577 21.3132 39.2519C20.0978 40.3305 18.696 40.8225 17.1078 40.7278C15.53 40.6447 14.1967 39.9897 13.1077 38.7626C12.0083 37.5238 11.495 36.1096 11.5676 34.5201C11.6286 32.941 12.261 31.6174 13.4647 30.5491C14.3061 29.8024 15.3433 29.2998 16.5762 29.0413C17.0577 28.9482 17.6151 28.8819 18.2483 28.8421L19.9807 28.7462C20.7229 28.7352 21.3056 28.709 21.7286 28.6678C22.3632 28.6061 22.9387 28.5131 23.4553 28.389C24.7232 28.0993 25.8247 27.5397 26.7596 26.71C29.9151 23.9098 30.1238 20.967 27.3858 17.8817C26.2242 16.5728 24.1348 15.3248 21.1176 14.1376Z" fill="#AAAAAA" fill-opacity="0.3"/>
</g>
<defs>
<filter id="filter0_f_27_323" x="0.411377" y="0.461426" width="51.929" height="50.8906" filterUnits="userSpaceOnUse" color-interpolation-filters="sRGB">
<feFlood flood-opacity="0" result="BackgroundImageFix"/>
<feBlend mode="normal" in="SourceGraphic" in2="BackgroundImageFix" result="shape"/>
<feGaussianBlur stdDeviation="2" result="effect1_foregroundBlur_27_323"/>
</filter>
</defs>
</svg>
