<svg width="76" height="76" viewBox="0 0 76 76" fill="none" xmlns="http://www.w3.org/2000/svg">
<g clip-path="url(#clip0_27_342)" filter="url(#filter0_f_27_342)">
<path d="M31.3006 6.59424C32.2121 6.3389 32.9258 6.75367 33.7555 7.0996C42.3385 10.6785 49.8335 18.2219 51.8509 27.4873C52.1513 28.867 52.2292 30.2594 52.3548 31.6605C52.7402 32.172 53.8199 33.0125 54.3337 33.4505L58.8588 37.3497C61.302 39.4961 61.1394 38.9199 61.8152 42.2576L63.2272 49.2256C63.5315 50.7104 64.0769 52.5098 62.3433 53.3788C61.0314 54.0366 59.473 53.0285 58.2167 52.6167L49.373 49.6854C50.5573 54.7557 49.2383 61.9484 46.431 66.2107C45.8284 67.1258 45.1429 68.32 43.9889 68.5578C42.889 68.5972 41.7353 67.8745 40.8608 67.2741C36.5465 64.3123 32.5705 58.5425 31.6021 53.2848C30.7413 53.9093 29.9701 54.6996 29.1799 55.4107L24.7385 59.407C23.4804 60.5409 22.1147 62.4221 20.2558 61.5446C18.9498 60.9281 18.882 59.3135 18.631 58.0742L17.2123 51.0727C16.5418 47.7639 16.8729 48.2968 18.1909 45.4264L19.978 41.6289C20.6069 40.2967 21.2522 39.1239 21.8961 37.8298C21.6194 37.191 21.4174 36.5204 21.2241 35.8527C18.4715 26.344 22.2076 15.6889 28.8113 8.63286C29.5393 7.85507 30.2962 7.00642 31.3006 6.59424ZM32.3791 11.2389C28.1583 15.8273 25.3933 21.2357 24.9465 27.5137C24.5363 33.2792 26.1294 39.316 31.3326 42.5041C33.5971 43.8917 36.5286 44.4031 39.1266 43.9888C41.619 43.503 44.1245 41.4862 45.5263 39.4034C48.9133 34.371 48.2761 28.3411 45.5056 23.193C42.7925 18.1512 38.6349 14.2335 33.4629 11.7282C33.1123 11.5584 32.7483 11.3625 32.3791 11.2389ZM35.859 48.5638C35.3306 51.9711 37.1755 56.6906 39.171 59.4001C40.4134 61.0872 41.5096 62.0003 42.9406 63.382C43.4734 62.3773 43.9793 61.3165 44.3392 60.2365C45.6821 55.9556 46.1106 50.9354 43.572 47.0016C41.6176 48.0817 39.6939 48.6102 37.4553 48.6439C36.9224 48.652 36.3857 48.543 35.859 48.5638ZM51.7063 37.0106C51.2869 38.9776 49.2319 42.0612 47.9483 43.5121C47.754 43.7318 47.5338 43.937 47.3546 44.1683C49.3425 44.9426 52.743 45.7943 54.4754 46.7271C55.4753 46.9307 57.3408 47.6198 58.3804 48.0265C58.2333 47.2634 57.2011 41.9161 57.0648 41.704C57.0251 41.6422 52.1758 37.1555 51.7063 37.0106ZM24.4999 42.5211C23.9027 43.7866 23.3011 45.0554 22.6715 46.305L21.9189 47.8249C21.7526 48.1544 21.5605 48.475 21.4369 48.8241C21.2726 49.2882 22.47 54.3378 22.6175 55.2702C23.6307 54.3718 24.6157 53.4365 25.6526 52.5651L31.2115 47.438C29.2051 46.6348 27.4274 45.4121 25.8283 43.9719C25.5821 43.7501 24.5933 42.5619 24.4999 42.5211Z" fill="#AAAAAA" fill-opacity="0.3"/>
<path d="M33.7389 19.9394C36.2628 19.1874 36.6644 21.4984 37.0362 23.3463L37.5862 26.0534C37.9247 27.722 37.8969 27.4335 39.2468 28.3453L41.6187 29.9268C42.5016 30.5062 43.7873 31.1464 43.4995 32.4361C43.3489 33.1107 42.6751 34.0783 42.0733 34.4463C40.9156 34.9615 40.1223 34.2888 39.2055 33.6804L36.724 32.0138C34.3542 30.4127 33.9887 30.8235 33.396 27.8979L32.4579 23.269C32.1499 21.7471 32.098 20.6472 33.7389 19.9394Z" fill="#AAAAAA" fill-opacity="0.3"/>
</g>
<defs>
<filter id="filter0_f_27_342" x="-4" y="-4" width="83.4312" height="83.4316" filterUnits="userSpaceOnUse" color-interpolation-filters="sRGB">
<feFlood flood-opacity="0" result="BackgroundImageFix"/>
<feBlend mode="normal" in="SourceGraphic" in2="BackgroundImageFix" result="shape"/>
<feGaussianBlur stdDeviation="2" result="effect1_foregroundBlur_27_342"/>
</filter>
<clipPath id="clip0_27_342">
<rect width="64" height="64" fill="white" transform="translate(0 12.7051) rotate(-11.4502)"/>
</clipPath>
</defs>
</svg>
