<svg width="74" height="77" viewBox="0 0 74 77" fill="none" xmlns="http://www.w3.org/2000/svg">
<g filter="url(#filter0_f_27_351)">
<path d="M30.349 4.63558C30.6731 4.65532 30.9996 4.72028 31.2857 4.87822C32.3353 5.45752 32.5248 6.94403 32.8713 7.97874C33.0911 8.63534 33.3531 9.2743 33.5562 9.93723C35.286 9.43961 37.2179 9.2803 39.0115 9.33554C39.1827 9.33932 39.3539 9.34524 39.525 9.35332C39.6961 9.3614 39.867 9.37162 40.0378 9.38398C40.2086 9.39636 40.3793 9.41088 40.5498 9.42753C40.7202 9.44419 40.8904 9.46298 41.0603 9.4839C41.2303 9.50484 41.4 9.5279 41.5694 9.5531C41.7389 9.5783 41.9079 9.60562 42.0766 9.63506C42.2453 9.66451 42.4137 9.69607 42.5816 9.72975C42.7495 9.76342 42.917 9.79919 43.084 9.83706C43.251 9.87494 43.4175 9.91491 43.5835 9.95698C43.7496 9.99905 43.9151 10.0432 44.08 10.0894C44.2449 10.1356 44.4092 10.1839 44.5728 10.2343C44.7365 10.2846 44.8996 10.337 45.062 10.3915C45.2244 10.4459 45.3861 10.5024 45.547 10.5609C45.7079 10.6194 45.8682 10.6799 46.0277 10.7424C46.1871 10.805 46.3457 10.8695 46.5035 10.936C46.6613 11.0025 46.8183 11.071 46.9743 11.1415C47.1304 11.2119 47.2857 11.2843 47.44 11.3587C47.5943 11.4331 47.7476 11.5093 47.8999 11.5875C48.0523 11.6658 48.2037 11.7459 48.354 11.8279C48.5044 11.9099 48.6537 11.9938 48.8019 12.0795C48.9502 12.1653 49.0973 12.2529 49.2433 12.3424C49.3894 12.4319 49.5343 12.5231 49.678 12.6162C49.8218 12.7093 49.9643 12.8042 50.1057 12.9009C50.2471 12.9976 50.3872 13.096 50.526 13.1962C50.665 13.2964 50.8026 13.3984 50.9389 13.502C51.0752 13.6057 51.2102 13.711 51.344 13.8181C51.4777 13.9251 51.61 14.0339 51.7409 14.1442C51.8719 14.2546 52.0014 14.3666 52.1295 14.4802C52.2577 14.5939 52.3844 14.7091 52.5096 14.8259C52.6348 14.9427 52.7586 15.0611 52.8809 15.181C53.0032 15.3009 53.1239 15.4224 53.2431 15.5453C53.3623 15.6683 53.48 15.7927 53.5961 15.9186C53.7609 16.0941 53.9228 16.2722 54.0816 16.4531C54.2405 16.6339 54.3964 16.8174 54.5491 17.0034C54.7019 17.1895 54.8514 17.378 54.9979 17.569C55.1443 17.7601 55.2876 17.9535 55.4276 18.1493C55.5677 18.3451 55.7045 18.5432 55.8379 18.7435C55.9713 18.9439 56.1013 19.1464 56.2279 19.3511C56.3546 19.5558 56.4778 19.7625 56.5976 19.9713C56.7174 20.1801 56.8337 20.3909 56.9464 20.6036C57.0592 20.8162 57.1684 21.0307 57.274 21.247C57.3796 21.4634 57.4816 21.6814 57.5799 21.9012C57.6783 22.1209 57.7729 22.3421 57.8638 22.565C57.9548 22.7878 58.0421 23.0122 58.1256 23.238C58.2091 23.4637 58.2888 23.6908 58.3647 23.9192C58.4406 24.1477 58.5127 24.3773 58.581 24.6081C58.6492 24.839 58.7136 25.0709 58.7742 25.3039C58.8347 25.5368 58.8913 25.7708 58.9441 26.0057C59.1007 26.7163 59.3015 27.4914 59.2722 28.2225C59.2492 28.7941 59.0866 29.393 58.644 29.7846C58.2206 30.1593 57.6227 30.2467 57.077 30.2157C56.3665 30.1754 55.6749 30.0302 54.9768 29.903C54.2738 29.7774 53.5702 29.6554 52.8659 29.5368L44.4489 28.0991L34.4042 26.3936L31.4498 25.8885C30.8176 25.7812 30.1664 25.6942 29.5456 25.5336C29.0517 25.4057 28.611 25.1664 28.2708 24.781C27.9117 24.3742 27.7603 23.8652 27.7943 23.3275C27.8323 22.7272 28.0985 22.1213 28.5577 21.725C28.9198 21.4125 29.3621 21.2831 29.8329 21.2871C30.6063 21.2935 31.4151 21.4902 32.177 21.6238L35.441 22.1833L47.8713 24.3109L52.0392 25.0429C52.7739 25.1685 53.5224 25.3285 54.2653 25.3869C53.6746 23.0454 51.8526 20.2721 50.1765 18.5556C47.0874 15.3921 42.892 13.7508 38.498 13.7094C38.3593 13.7092 38.2206 13.7107 38.0818 13.7138C37.9432 13.7169 37.8045 13.7216 37.666 13.7281C37.5273 13.7345 37.3888 13.7426 37.2504 13.7524C37.1121 13.7622 36.9738 13.7736 36.8357 13.7867C36.6976 13.7998 36.5597 13.8146 36.4218 13.831C36.2841 13.8474 36.1466 13.8655 36.0093 13.8853C35.8719 13.905 35.7349 13.9264 35.5981 13.9494C35.4613 13.9725 35.3248 13.9971 35.1885 14.0234C35.0523 14.0498 34.9164 14.0777 34.7808 14.1073C34.6453 14.1369 34.5102 14.1681 34.3754 14.201C34.2406 14.2338 34.1062 14.2682 33.9722 14.3043C33.8383 14.3404 33.7048 14.3781 33.5717 14.4174C33.4387 14.4567 33.3061 14.4976 33.1741 14.54C33.042 14.5825 32.9104 14.6266 32.7794 14.6722C32.6484 14.7179 32.518 14.7651 32.3881 14.8139C32.2582 14.8626 32.1289 14.913 32.0002 14.9649C31.8716 15.0168 31.7436 15.0702 31.6162 15.1252C31.4888 15.1802 31.3621 15.2367 31.2361 15.2947C31.1101 15.3527 30.9848 15.4123 30.8603 15.4733C30.7356 15.5343 30.6118 15.5969 30.4887 15.6609C30.3657 15.7249 30.2434 15.7904 30.1219 15.8574C30.0004 15.9244 29.8796 15.9928 29.7597 16.0626C29.6399 16.1325 29.521 16.2038 29.4028 16.2766C29.2847 16.3493 29.1674 16.4234 29.0511 16.499C28.9347 16.5745 28.8193 16.6515 28.7048 16.7298C28.5903 16.8081 28.4767 16.8878 28.3641 16.9689C28.2515 17.05 28.1399 17.1324 28.0294 17.2162C27.9188 17.2999 27.8092 17.385 27.7006 17.4713C27.5921 17.5578 27.4846 17.6455 27.3782 17.7344C27.2717 17.8234 27.1663 17.9136 27.062 18.0051C26.9578 18.0967 26.8546 18.1895 26.7526 18.2835C26.6505 18.3775 26.5496 18.4727 26.4499 18.5691C24.6915 20.3016 23.3261 22.4946 22.436 24.7911C21.4906 27.2304 21.1693 29.8311 20.7319 32.3946L19.3489 40.5151C19.2231 41.2843 19.0862 42.0514 18.9379 42.8164C18.7786 43.6237 18.5576 44.4525 18.5568 45.2799C18.5563 45.9128 18.7534 46.5772 19.2159 47.0282C19.5448 47.349 19.9707 47.5273 20.4127 47.6301C21.1468 47.801 21.9116 47.8987 22.6549 48.0249L26.6013 48.7004L38.8474 50.8009C41.4702 51.2479 44.0906 51.7266 46.718 52.1447C47.775 52.313 48.8957 52.6011 49.9652 52.5802C50.7075 52.5655 51.353 52.2828 51.7775 51.6583C52.3733 50.7815 52.5494 49.0432 52.7301 47.9876L53.8373 41.5007C54.0146 40.4591 54.101 39.3373 54.4061 38.327C54.5414 37.8789 54.7455 37.4525 55.0763 37.1147C55.4923 36.6897 56.0621 36.5166 56.6467 36.5176C58.5671 36.521 61.1366 38.3548 62.4632 39.6911C62.5489 39.778 62.6335 39.866 62.7171 39.955C62.8007 40.044 62.8832 40.1339 62.9646 40.225C63.046 40.316 63.1263 40.4079 63.2055 40.5008C63.2846 40.5938 63.3626 40.6877 63.4396 40.7826C63.5165 40.8775 63.5922 40.9732 63.6667 41.0699C63.7412 41.1666 63.8146 41.2642 63.8868 41.3626C63.959 41.4611 64.0299 41.5604 64.0997 41.6607C64.1695 41.7609 64.238 41.8619 64.3053 41.9638C64.3726 42.0656 64.4387 42.1683 64.5035 42.2717C64.5683 42.3752 64.6318 42.4795 64.694 42.5846C64.7563 42.6896 64.8173 42.7953 64.8771 42.9018C64.9368 43.0083 64.9951 43.1155 65.0523 43.2234C65.1093 43.3313 65.1651 43.4399 65.2195 43.5493C65.274 43.6585 65.3271 43.7684 65.3789 43.8791C65.4306 43.9896 65.4811 44.1008 65.5302 44.2126C65.5792 44.3244 65.627 44.4367 65.6733 44.5496C65.7196 44.6626 65.7646 44.7762 65.8081 44.8902C65.8518 45.0043 65.894 45.1189 65.9348 45.234C65.9756 45.349 66.015 45.4645 66.053 45.5806C66.0909 45.6966 66.1275 45.8131 66.1626 45.9301C66.1978 46.047 66.2315 46.1643 66.2638 46.282C66.2961 46.3997 66.327 46.5179 66.3564 46.6364C66.3859 46.7549 66.4139 46.8738 66.4404 46.9929C66.4669 47.1121 66.4919 47.2316 66.5156 47.3513C66.5393 47.4711 66.5614 47.5912 66.5821 47.7115C66.6028 47.8318 66.6221 47.9524 66.6399 48.0732C66.6576 48.1939 66.6739 48.3149 66.6888 48.4362C66.7036 48.5573 66.717 48.6787 66.7289 48.8002C66.7408 48.9217 66.7511 49.0433 66.76 49.1651C66.7689 49.2869 66.7764 49.4088 66.7824 49.5307C66.7883 49.6526 66.7928 49.7746 66.7959 49.8967C66.7989 50.0188 66.8003 50.1409 66.8004 50.263C66.7947 51.4216 66.8238 53.2034 65.9356 54.0683C65.8863 54.1162 65.8347 54.1616 65.7809 54.2044C65.727 54.2472 65.671 54.2872 65.6131 54.3244C65.5553 54.3616 65.4957 54.3958 65.4344 54.4271C65.3731 54.4583 65.3103 54.4864 65.2461 54.5113C65.182 54.5362 65.1168 54.5579 65.0505 54.5763C64.9842 54.5947 64.9172 54.6098 64.8494 54.6216C64.7816 54.6332 64.7134 54.6415 64.6448 54.6463C64.5761 54.6512 64.5074 54.6527 64.4386 54.6506C63.8691 54.6351 63.2676 54.3798 62.8789 53.9596C61.9237 52.927 62.4756 51.7612 62.5245 50.5711C62.5676 50.0418 62.517 49.4737 62.4486 48.9485C62.4366 48.8585 62.4235 48.7687 62.4093 48.679C62.3951 48.5894 62.3799 48.5 62.3635 48.4107C62.3472 48.3214 62.3297 48.2323 62.3113 48.1434C62.2927 48.0546 62.2731 47.966 62.2525 47.8776C62.2317 47.7893 62.2099 47.7012 62.1871 47.6133C62.1643 47.5255 62.1404 47.4379 62.1154 47.3507C62.0904 47.2634 62.0644 47.1765 62.0374 47.0899C62.0103 47.0032 61.9821 46.917 61.9529 46.8311C61.9237 46.7451 61.8935 46.6595 61.8622 46.5744C61.8309 46.4891 61.7986 46.4043 61.7652 46.3199C61.7319 46.2355 61.6975 46.1515 61.6621 46.0679C61.6267 45.9843 61.5903 45.9012 61.5529 45.8186C61.5155 45.7358 61.477 45.6536 61.4376 45.5719C61.3982 45.4901 61.3578 45.4089 61.3164 45.3281C61.275 45.2474 61.2326 45.1671 61.1892 45.0873C61.1458 45.0076 61.1015 44.9284 61.0561 44.8498C61.0109 44.7712 60.9647 44.6931 60.9175 44.6156C60.8703 44.5381 60.8221 44.4612 60.7731 44.3848C60.724 44.3084 60.674 44.2327 60.6231 44.1575C60.5721 44.0824 60.5202 44.0079 60.4675 43.934C60.4148 43.8602 60.3612 43.7869 60.3066 43.7144C60.2521 43.6418 60.1967 43.57 60.1404 43.4988C60.0841 43.4275 60.027 43.357 59.969 43.2873C59.911 43.2174 59.8522 43.1483 59.7925 43.0799C59.7329 43.0116 59.6723 42.944 59.611 42.8771C59.5496 42.8101 59.4875 42.744 59.4246 42.6786C59.3617 42.6132 59.2979 42.5486 59.2334 42.4847C59.1689 42.421 59.1036 42.3579 59.0375 42.2957C58.9714 42.2334 58.9047 42.172 58.8372 42.1114C58.7696 42.0508 58.7013 41.991 58.6323 41.9321C58.5633 41.8731 58.4935 41.815 58.4231 41.7577C58.3527 41.7004 58.2816 41.6441 58.2098 41.5886C58.207 41.6137 58.204 41.6387 58.2009 41.6638C57.9562 43.4832 57.5905 45.3002 57.2826 47.1103L56.8296 49.7783C56.6614 50.7707 56.5327 51.8209 56.1301 52.751C55.6423 53.8778 54.8162 54.8847 53.8351 55.6183C53.7543 55.6794 53.6722 55.7385 53.5888 55.7959C53.5054 55.8531 53.4207 55.9086 53.3348 55.9621C53.2488 56.0155 53.1617 56.067 53.0734 56.1165C52.9851 56.1661 52.8958 56.2136 52.8053 56.259C52.7149 56.3045 52.6235 56.3479 52.5311 56.3893C52.4387 56.4306 52.3454 56.4699 52.2513 56.5069C52.1572 56.5441 52.0622 56.5791 51.9664 56.612C51.8706 56.6448 51.7742 56.6754 51.6771 56.7039C51.5799 56.7324 51.4822 56.7586 51.3839 56.7826C51.2855 56.8067 51.1867 56.8284 51.0874 56.848C50.9881 56.8675 50.8884 56.8848 50.7883 56.8998C50.6882 56.9149 50.5878 56.9277 50.4871 56.9383C50.3864 56.9487 50.2856 56.9569 50.1845 56.9629C50.0835 56.9688 49.9824 56.9724 49.8811 56.9738C49.7799 56.9751 49.6788 56.9742 49.5776 56.971C49.4765 56.9677 49.3754 56.9622 49.2744 56.9544C48.4994 56.8918 47.7428 56.7214 46.9788 56.5851C45.7248 56.3615 44.4656 56.1271 43.2044 55.9486C43 57.3901 42.7328 58.8291 42.4774 60.2625C42.3421 61.0216 42.1778 61.7908 42.0959 62.5572C42.6482 63.5025 43.3363 64.4023 43.969 65.2978C44.3214 65.7966 44.754 66.5106 45.1805 66.9143C45.688 67.0208 46.2063 67.0795 46.7181 67.1637L49.5702 67.6432C50.3429 67.7721 51.1906 67.8524 51.9118 68.1669C51.992 68.2027 52.0695 68.2436 52.1443 68.2895C52.2191 68.3354 52.2906 68.3861 52.3588 68.4414C52.427 68.4967 52.4913 68.5562 52.5517 68.6199C52.6121 68.6836 52.6681 68.751 52.7197 68.822C52.7611 68.8797 52.7995 68.9392 52.835 69.0007C52.8705 69.062 52.9029 69.125 52.9322 69.1896C52.9616 69.2541 52.9877 69.32 53.0105 69.3871C53.0334 69.4543 53.0529 69.5224 53.0691 69.5914C53.0853 69.6605 53.098 69.7301 53.1074 69.8005C53.1167 69.8708 53.1225 69.9414 53.125 70.0123C53.1274 70.0832 53.1263 70.154 53.1218 70.2247C53.1173 70.2955 53.1093 70.366 53.0978 70.4359C53.0866 70.5073 53.0718 70.578 53.0536 70.648C53.0353 70.7179 53.0136 70.7868 52.9885 70.8546C52.9634 70.9224 52.9349 70.9887 52.9032 71.0537C52.8716 71.1187 52.8367 71.1819 52.7986 71.2435C52.7606 71.3049 52.7197 71.3644 52.6758 71.4218C52.6319 71.4792 52.5853 71.5343 52.5358 71.5871C52.4865 71.6399 52.4346 71.6901 52.3802 71.7378C52.3259 71.7854 52.2692 71.8302 52.2104 71.8722C51.8756 72.1078 51.5109 72.2348 51.1032 72.2603C50.1883 72.3176 49.1944 72.0462 48.2925 71.8896L44.5078 71.2402C42.9137 70.9683 42.5322 70.9342 41.5703 69.5733C41.1926 69.0387 40.8393 68.487 40.4638 67.9506C39.6853 66.8379 37.8983 64.5108 37.6168 63.2628C37.4053 62.325 37.978 59.9213 38.1525 58.9036L38.7858 55.1833L29.371 53.5735L28.4495 58.9771C28.304 59.8432 28.2382 60.7749 27.9792 61.6132C27.9069 61.8473 27.7661 62.0437 27.6036 62.224C27.0802 62.8044 26.3594 63.2488 25.7156 63.6825C25.1774 64.0386 24.6469 64.4058 24.124 64.7841L22.4818 65.9659C22.1003 66.2434 21.7246 66.5515 21.3086 66.7758C21.0204 66.9314 20.7207 66.9953 20.3951 67.0083C19.6774 67.0366 18.9189 66.8632 18.2141 66.7401L15.8326 66.3267L14.0507 66.0324C13.5885 65.9581 13.1201 65.8973 12.6703 65.764C12.2852 65.6497 11.919 65.4768 11.6238 65.1998C11.1951 64.7978 11.0078 64.2748 10.993 63.6953C10.9779 63.0994 11.1888 62.5356 11.6049 62.1056C11.9252 61.7747 12.3486 61.5766 12.8033 61.5163C13.6195 61.408 14.8974 61.728 15.7399 61.8699C16.5017 61.9982 17.2691 62.1131 18.0265 62.2635C18.4771 62.3529 18.9808 62.5289 19.439 62.508C19.6583 62.4979 19.8744 62.3757 20.0603 62.2657C20.6527 61.9154 21.1996 61.4573 21.7625 61.0588C22.3459 60.6459 23.501 59.9666 23.9331 59.4798C23.9404 59.4716 23.9476 59.4631 23.9547 59.4546C24.3726 57.2613 24.7081 55.0463 25.09 52.8461C23.9712 52.6307 22.8402 52.4589 21.717 52.2665C20.4778 52.0544 19.1439 51.8579 18.0056 51.3005C17.8053 51.2002 17.6106 51.09 17.4215 50.9697C17.2325 50.8495 17.0501 50.7199 16.8745 50.581C16.6987 50.442 16.5305 50.2944 16.37 50.1382C16.2094 49.9819 16.0573 49.8178 15.9136 49.646C15.1274 48.7241 14.5151 47.6772 14.2868 46.4751C13.9432 44.666 14.4919 42.3582 14.8006 40.5401L15.4503 36.7514C15.587 35.9969 15.7677 35.2357 15.8296 34.4711C15.2908 34.5751 14.7297 34.8079 14.2361 35.0466C11.7516 36.2478 9.93427 38.6117 9.01055 41.1751C8.69838 42.0414 8.64909 43.115 8.08116 43.8614C7.7317 44.3208 7.1824 44.6261 6.61167 44.6997C6.00501 44.778 5.39306 44.574 4.91743 44.1972C4.48692 43.8561 4.19779 43.371 4.13923 42.8218C4.05817 42.0614 4.28011 41.2715 4.50754 40.5533C4.5873 40.2991 4.67293 40.0469 4.76443 39.7968C4.85593 39.5466 4.9532 39.2988 5.05624 39.0532C5.15929 38.8075 5.26802 38.5644 5.3824 38.3238C5.49679 38.0833 5.61671 37.8455 5.74217 37.6105C5.86763 37.3755 5.9985 37.1436 6.13477 36.9147C6.27103 36.6859 6.41256 36.4603 6.55935 36.2379C6.70613 36.0157 6.85801 35.797 7.01497 35.5818C7.17195 35.3666 7.33386 35.1552 7.50069 34.9475C9.32161 32.6949 11.7448 30.9276 14.5946 30.2614C15.2605 30.1058 15.9335 30.0376 16.6121 29.9649C16.961 27.6859 17.4339 25.4723 18.2808 23.3214C20.3404 18.0905 24.2251 13.7095 29.4123 11.4515L28.7619 9.3147C28.5192 8.51195 28.1549 7.55981 28.1428 6.71638C28.1354 6.19521 28.3603 5.66777 28.723 5.29614C29.1623 4.84586 29.7294 4.64704 30.349 4.63558Z" fill="#AAAAAA" fill-opacity="0.3"/>
</g>
<defs>
<filter id="filter0_f_27_351" x="-3.92676" y="-2.92676" width="81.8679" height="81.8682" filterUnits="userSpaceOnUse" color-interpolation-filters="sRGB">
<feFlood flood-opacity="0" result="BackgroundImageFix"/>
<feBlend mode="normal" in="SourceGraphic" in2="BackgroundImageFix" result="shape"/>
<feGaussianBlur stdDeviation="2" result="effect1_foregroundBlur_27_351"/>
</filter>
</defs>
</svg>
