<svg width="70" height="54" viewBox="0 0 70 54" fill="none" xmlns="http://www.w3.org/2000/svg">
<g filter="url(#filter0_f_27_345)">
<path d="M28.9289 7.23545C32.8439 7.65605 36.7097 8.5605 40.2032 10.4241C41.7118 11.2288 41.4858 11.2821 43.1892 11.4758C53.409 12.6382 62.562 19.5568 64.8669 29.8625C66.957 39.2088 62.2024 49.0523 53.9384 53.7172C52.9275 54.288 51.9012 54.6775 50.8416 55.1393C51.217 56.833 50.9986 58.0783 52.0642 59.7582C52.7013 60.7625 53.788 61.3241 53.4477 62.7052C52.8528 65.1196 49.683 64.4468 47.9314 63.9899C44.2179 63.0211 40.7331 60.669 38.7755 57.3253L38.3312 57.2764C35.2641 56.9617 32.5494 56.0489 29.9492 54.3879C27.4605 52.7982 29.2308 53.149 26.2438 52.9398C25.4697 52.8856 24.6909 52.7743 23.9193 52.6878C23.4396 52.9646 23.045 53.4457 22.6024 53.7903C19.3532 56.3212 15.2248 57.7609 11.1025 57.0589C10.6306 56.9786 10.1057 56.8965 9.65802 56.7287C8.31267 56.2244 7.81322 54.4873 8.76472 53.374C9.05325 53.0364 9.42682 52.7568 9.7561 52.4597C11.0179 51.3213 11.8633 49.9174 12.4601 48.329C12.2155 48.0866 11.8889 47.8973 11.6105 47.6934C4.65101 42.5971 0.68824 33.728 2.53356 25.1483C5.14353 13.0133 17.181 6.34777 28.9289 7.23545ZM29.0708 11.4193C18.349 10.3314 7.51662 16.9256 6.41435 28.0693C5.75887 34.6962 9.23824 40.766 14.4881 44.5573C15.7809 45.4908 17.2456 45.9151 17.0541 47.9254C16.8966 49.5763 15.9817 51.2868 15.1164 52.696C17.0718 52.5799 19.6645 50.8491 20.9188 49.3803C22.2068 47.9299 23.2428 48.2557 24.947 48.4453C32.1149 49.2425 39.4214 47.3966 44.4399 41.9203C50.6577 35.1355 50.3998 25.6143 44.3564 18.84C40.7083 14.7507 34.6091 11.6156 29.0708 11.4193ZM48.6437 17.2328C48.7772 17.6367 49.3084 18.1169 49.5562 18.4906C57.9842 31.2065 51.8338 46.3739 37.7983 51.334C37.4054 51.4728 35.4336 51.9746 35.2835 52.119C35.4692 52.5384 38.4768 52.9584 38.9203 52.9983C40.8838 53.1746 41.261 52.9932 42.3182 54.9124C42.9488 56.0575 43.8728 57.0571 44.8954 57.8615C45.5602 58.4017 46.3413 58.8702 47.1276 59.2153C46.6253 57.4541 45.5083 53.1843 47.5211 51.9715C48.1445 51.5959 48.9518 51.451 49.6318 51.1838C52.3385 50.1203 54.8263 48.2732 56.7217 46.0865C65.3862 36.0905 60.3462 21.6573 48.6437 17.2328Z" fill="#AAAAAA" fill-opacity="0.3"/>
<path d="M12.8082 26.2365C13.6884 26.3094 14.5704 26.4293 15.4484 26.5267L22.9892 27.3561C23.4196 27.4023 23.8974 27.4161 24.3158 27.5246C26.8881 28.192 26.521 31.8884 23.7728 31.7947C23.0214 31.7664 22.2497 31.6274 21.5007 31.5444L13.4149 30.6514C12.5262 30.5553 11.7676 30.6156 11.0663 29.9548C9.65191 28.6219 10.6191 26.2662 12.8082 26.2365Z" fill="#AAAAAA" fill-opacity="0.3"/>
<path d="M31.669 28.3152C32.4658 28.3685 33.2716 28.4907 34.0661 28.5789L41.6925 29.4181C42.6578 29.5243 43.7205 29.5015 44.4753 30.2067C46.0145 31.645 45.0055 33.8317 42.7439 33.8855C41.8241 33.7666 40.897 33.6818 39.9749 33.5804L32.3504 32.7411C31.83 32.6837 31.2872 32.6477 30.7799 32.514C28.4848 31.9097 28.6977 28.2997 31.669 28.3152Z" fill="#AAAAAA" fill-opacity="0.3"/>
<path d="M20.5795 35.011C21.5117 35.0864 22.4476 35.216 23.3778 35.3184L32.1875 36.2906C32.8903 36.3686 33.6559 36.4228 34.3419 36.592C36.8324 37.2058 36.4783 40.8862 33.5382 40.803L21.43 39.4694C20.8394 39.404 20.2208 39.3629 19.6415 39.229C17.518 38.7379 17.2221 35.0554 20.5795 35.011Z" fill="#AAAAAA" fill-opacity="0.3"/>
<path d="M22.4663 19.2872L34.6934 20.6329C35.2301 20.6914 35.8087 20.7158 36.3295 20.8591C38.6893 21.5087 38.2527 25.4624 35.1492 25.143L23.2391 23.8311C22.2152 23.7198 21.0694 23.7296 20.3233 22.9034C18.9681 21.4029 20.1859 19.1052 22.4663 19.2872Z" fill="#AAAAAA" fill-opacity="0.3"/>
</g>
<defs>
<filter id="filter0_f_27_345" x="-6" y="-4" width="78.6262" height="78.626" filterUnits="userSpaceOnUse" color-interpolation-filters="sRGB">
<feFlood flood-opacity="0" result="BackgroundImageFix"/>
<feBlend mode="normal" in="SourceGraphic" in2="BackgroundImageFix" result="shape"/>
<feGaussianBlur stdDeviation="2" result="effect1_foregroundBlur_27_345"/>
</filter>
</defs>
</svg>
