<svg width="75" height="75" viewBox="0 0 75 75" fill="none" xmlns="http://www.w3.org/2000/svg">
<g filter="url(#filter0_f_27_353)">
<path d="M19.2876 33.9637C17.2117 33.5766 15.624 33.5314 14.0874 31.8488C12.9772 30.633 12.5487 29.1296 12.6194 27.5047C13.0646 24.5574 14.1903 23.8571 16.3963 22.3759L35.6794 9.28871C36.7976 8.52886 38.2991 7.35425 39.4936 6.77111C41.9103 5.5911 44.7246 6.33787 46.3589 8.44595C46.684 8.86519 46.9726 9.31928 47.2711 9.7577L61.5326 30.3956C62.8552 32.2661 64.0642 33.7321 63.7331 36.2191C63.4303 38.4929 61.7333 40.4546 59.4912 40.976C57.5817 41.4201 56.6076 40.9099 54.8047 40.6608L51.2553 59.4852C51.0493 60.5843 51.0747 61.6216 50.117 62.376C49.1083 63.1706 47.4955 62.9263 46.7213 61.9185C45.8133 60.7363 46.3078 59.1887 46.5579 57.8629L49.6579 41.4296C49.7639 40.8705 49.8976 40.3139 49.9742 39.7499C49.3938 39.6032 48.7818 39.5237 48.1922 39.4129L44.5344 38.7242L43.1274 46.1806C42.8346 47.7335 42.5273 49.2852 42.264 50.8434C41.7126 54.1069 36.646 53.747 37.4139 49.5685L39.8842 36.5523C40.5845 32.8329 41.2684 33.0364 44.3934 33.629L48.7858 34.4559L55.5435 35.7285C56.3183 35.875 58.2873 36.5737 58.799 35.9345C59.1491 35.4971 58.3229 34.637 58.0857 34.2931L45.1929 15.2362C44.7105 14.5105 42.8919 11.6602 42.3831 11.2871C41.6145 10.7234 40.6449 11.8683 39.9641 12.3191C36.7217 14.4655 33.5269 16.679 30.3073 18.859L19.0295 26.5015C18.5034 26.8534 17.9694 27.108 17.6258 27.6594C17.7476 29.1349 19.4605 28.9268 20.7855 29.1766L32.1851 31.3236C33.1695 31.5008 34.067 31.54 34.7154 32.4121C35.4802 33.4406 34.6276 36.0626 34.3967 37.2848L32.4822 47.4376C32.3541 48.1177 32.2683 48.8566 32.0375 49.5084C31.1651 51.9726 27.2681 51.4092 27.2526 48.8111C27.2489 48.1845 27.4087 47.5589 27.5242 46.9454L29.606 35.9093L24.1602 34.8825L20.687 53.3044C20.4699 54.4565 20.4904 55.6795 19.4513 56.4201C18.3145 57.2303 16.703 57.0592 15.894 55.8785C15.1431 54.7825 15.5452 53.8007 15.7697 52.6185L19.2876 33.9637Z" fill="#AAAAAA" fill-opacity="0.3"/>
<path d="M30.2657 59.1872C29.9824 60.608 29.7283 62.0358 29.461 63.4597C29.2133 64.7793 29.1898 66.2078 28.0293 67.0814C26.2625 68.4115 23.83 66.8732 24.1664 64.7573C24.2702 63.7395 24.5959 62.4822 24.7909 61.4482L25.1638 59.4566C25.2996 58.7085 25.3657 57.7789 25.9021 57.1883C27.5407 55.3844 30.1992 56.678 30.2657 59.1872Z" fill="#AAAAAA" fill-opacity="0.3"/>
<path d="M40.2098 61.6592L39.4306 65.8028C39.3089 66.4484 39.2095 67.3679 38.9652 67.9628C38.2298 69.7534 35.8004 69.8754 34.6772 68.4243C34.1042 67.6841 34.2151 66.8718 34.3325 66.0043L35.0581 62.1522C35.1933 61.4357 35.3332 60.2246 35.6476 59.5835C36.7039 57.4309 40.9407 57.8085 40.2098 61.6592Z" fill="#AAAAAA" fill-opacity="0.3"/>
</g>
<defs>
<filter id="filter0_f_27_353" x="-4" y="-4" width="82.7505" height="82.75" filterUnits="userSpaceOnUse" color-interpolation-filters="sRGB">
<feFlood flood-opacity="0" result="BackgroundImageFix"/>
<feBlend mode="normal" in="SourceGraphic" in2="BackgroundImageFix" result="shape"/>
<feGaussianBlur stdDeviation="2" result="effect1_foregroundBlur_27_353"/>
</filter>
</defs>
</svg>
