<svg width="48" height="50" viewBox="0 0 48 50" fill="none" xmlns="http://www.w3.org/2000/svg">
<g filter="url(#filter0_f_27_319)">
<path d="M23.4969 30.6194C23.2651 31.5621 21.3749 31.6155 17.7192 30.7875C16.9097 30.6105 16.2255 30.3812 15.604 30.1257C13.9613 29.4505 13.2297 28.5789 13.3022 27.5189C13.4476 26.2812 13.7263 25.0983 14.219 23.8997C15.2591 21.3691 16.95 19.7806 19.3541 19.1081C20.9543 18.6241 21.9408 17.9917 22.2875 17.1482C22.7072 16.1271 22.4823 15.4118 21.5943 15.0469C20.884 14.7549 19.7248 14.7974 18.0541 15.2005C17.0804 15.423 16.2162 15.3792 15.5502 15.1055C14.725 14.7143 14.3091 13.4536 14.3913 11.3596C14.4589 10.8165 14.5969 10.3543 14.7612 9.95473C15.0714 9.2 15.5489 8.6697 16.2014 8.47087C17.9007 7.87192 19.7125 7.6306 21.655 7.70249C24.8273 7.81279 27.825 8.47408 30.5672 9.75691C38.9191 13.5531 41.7966 18.4206 39.2182 24.3149C37.5418 28.1408 34.4412 29.8764 29.8537 29.5477C25.8537 29.3047 23.7755 29.4366 23.6453 30.0058C23.6271 30.0502 23.5985 30.246 23.4969 30.6194ZM17.5707 31.4012C18.2288 31.5679 18.8242 31.7607 19.3125 31.9614C21.6655 32.9286 22.6586 34.4266 22.2473 36.4372C22.164 36.7662 22.0989 37.0509 21.9894 37.3172C21.2412 39.1375 19.2834 39.734 16.1526 39.0179C14.4448 38.6274 13.1494 37.9911 12.2664 37.1092C11.1718 35.9846 10.9438 34.6454 11.5825 33.0915C12.3672 31.1825 14.3693 30.6042 17.5707 31.4012Z" fill="#AAAAAA" fill-opacity="0.3"/>
</g>
<defs>
<filter id="filter0_f_27_319" x="0.633301" y="0.0942383" width="46.6414" height="49.2305" filterUnits="userSpaceOnUse" color-interpolation-filters="sRGB">
<feFlood flood-opacity="0" result="BackgroundImageFix"/>
<feBlend mode="normal" in="SourceGraphic" in2="BackgroundImageFix" result="shape"/>
<feGaussianBlur stdDeviation="2" result="effect1_foregroundBlur_27_319"/>
</filter>
</defs>
</svg>
